<?xml version="1.0" encoding="iso-8859-1"?>
<!-- Generator: Adobe Illustrator 19.0.0, SVG Export Plug-In . SVG Version: 6.00 Build 0)  -->
<svg xmlns="http://www.w3.org/2000/svg" xmlns:xlink="http://www.w3.org/1999/xlink" version="1.1" id="Layer_1" x="0px" y="0px" viewBox="0 0 512 512" style="enable-background:new 0 0 512 512;" xml:space="preserve" width="512px" height="512px">
<g>
	<g>
		<path d="M463.494,103.268H326.29v-39.15c0-8.656-7.018-15.673-15.673-15.673h-109.24c-8.656,0-15.673,7.018-15.673,15.673v39.15    H48.506C21.76,103.268,0,125.028,0,151.775v263.273c0,26.747,21.76,48.507,48.506,48.507h414.987    c26.746,0,48.506-21.76,48.506-48.507V151.775C512,125.028,490.24,103.268,463.494,103.268z M217.05,79.792h77.893v23.477H217.05    V79.792z M480.653,415.048c0,9.463-7.698,17.16-17.159,17.16H48.506c-9.462,0-17.159-7.698-17.159-17.16V151.775    c0-9.462,7.698-17.159,17.159-17.159h414.987c9.461,0,17.159,7.698,17.159,17.159V415.048z" fill="#FFFFFF"/>
	</g>
</g>
<g>
	<g>
		<path d="M256,158.092c-68.878,0-124.913,56.219-124.913,125.32c0,69.102,56.036,125.321,124.913,125.321    s124.913-56.219,124.913-125.321C380.913,214.311,324.878,158.092,256,158.092z M256,377.385    c-51.593,0-93.566-42.156-93.566-93.974c0-51.817,41.974-93.973,93.566-93.973s93.566,42.156,93.566,93.973    C349.566,335.228,307.593,377.385,256,377.385z" fill="#FFFFFF"/>
	</g>
</g>
<g>
	<g>
		<path d="M303.586,253.308h-17.593V235.65c0-9.083-7.336-16.447-16.386-16.447h-27.211c-9.05,0-16.386,7.363-16.386,16.447v17.659    h-17.593c-9.05,0-16.386,7.363-16.386,16.447v27.313c0,9.083,7.336,16.447,16.386,16.447h17.593v17.659    c0,9.083,7.336,16.447,16.386,16.447h27.211c9.05,0,16.386-7.363,16.386-16.447v-17.659h17.593c9.05,0,16.386-7.363,16.386-16.447    v-27.313C319.971,260.672,312.635,253.308,303.586,253.308z" fill="#FFFFFF"/>
	</g>
</g>
<g>
</g>
<g>
</g>
<g>
</g>
<g>
</g>
<g>
</g>
<g>
</g>
<g>
</g>
<g>
</g>
<g>
</g>
<g>
</g>
<g>
</g>
<g>
</g>
<g>
</g>
<g>
</g>
<g>
</g>
</svg>
